<?xml version="1.0" encoding="UTF-8"?>
<svg id="Layer_1" xmlns="http://www.w3.org/2000/svg" version="1.1" viewBox="0 0 1298.3 459.2">
  <!-- Generator: Adobe Illustrator 29.7.0, SVG Export Plug-In . SVG Version: 2.1.1 Build 138)  -->
  <defs>
    <style>
      .st0 {
        fill: #fff;
      }
    </style>
  </defs>
  <polygon class="st0" points="8.5 12.6 8.5 171 106.6 171 106.6 152.3 29.3 152.3 29.3 12.6 8.5 12.6"/>
  <path class="st0" d="M207,171v-16.7c-8.8,12.9-20.8,19.3-36,19.3s-13-1.3-18.8-3.9c-5.8-2.6-10.1-5.8-12.9-9.7-2.8-3.9-4.8-8.7-5.9-14.3-.8-3.8-1.2-9.8-1.2-18V57.1h19.2v63.2c0,10.1.4,16.9,1.2,20.4,1.2,5.1,3.8,9.1,7.7,12,3.9,2.9,8.8,4.3,14.5,4.3s11.2-1.5,16.2-4.5c5.1-3,8.6-7,10.7-12.1,2.1-5.1,3.2-12.5,3.2-22.3v-61h19.2v113.9h-17.2Z"/>
  <path class="st0" d="M332.3,129.3l18.9,2.5c-2.1,13.1-7.4,23.4-15.9,30.8-8.5,7.4-19,11.1-31.4,11.1s-28-5.1-37.5-15.3-14.2-24.8-14.2-43.8,2-23.1,6.1-32.3c4.1-9.2,10.2-16.2,18.6-20.8,8.3-4.6,17.3-6.9,27.1-6.9s22.4,3.1,30.2,9.4c7.8,6.3,12.9,15.2,15.1,26.7l-18.7,2.9c-1.8-7.7-4.9-13.4-9.5-17.3-4.5-3.9-10-5.8-16.4-5.8-9.7,0-17.6,3.5-23.6,10.5-6.1,7-9.1,18-9.1,33.1s2.9,26.4,8.8,33.4c5.8,6.9,13.5,10.4,22.9,10.4s13.9-2.3,18.9-7c5.1-4.6,8.3-11.8,9.6-21.5"/>
  <path class="st0" d="M370.8,216l-2.1-18.3c4.2,1.1,7.8,1.7,10.9,1.7s7.6-.7,10.2-2.2c2.5-1.4,4.6-3.5,6.3-6.1,1.2-1.9,3.1-6.8,5.8-14.5.4-1.1.9-2.7,1.7-4.8l-42.7-115h20.6l23.4,66.4c3,8.4,5.7,17.3,8.2,26.6,2.2-8.9,4.8-17.7,7.8-26.1l24.1-66.9h19.1l-42.8,116.7c-4.6,12.6-8.2,21.3-10.7,26-3.4,6.4-7.3,11.1-11.7,14.1-4.4,3-9.6,4.5-15.7,4.5s-7.8-.8-12.3-2.4"/>
  <polygon class="st0" points="653.6 12.6 653.6 77.7 571.5 77.7 571.5 12.6 550.6 12.6 550.6 171 571.5 171 571.5 96.3 653.6 96.3 653.6 171 674.5 171 674.5 12.6 653.6 12.6"/>
  <polygon class="st0" points="550.6 171 550.9 171 550.9 12.9 571.2 12.9 571.2 77.9 653.9 77.9 653.9 12.9 674.3 12.9 674.3 170.7 653.9 170.7 653.9 96.1 571.2 96.1 571.2 170.7 550.6 170.7 550.6 171 550.9 171 550.6 171 550.6 171.2 571.8 171.2 571.8 96.6 653.3 96.6 653.3 171.2 674.8 171.2 674.8 12.4 653.3 12.4 653.3 77.4 571.8 77.4 571.8 12.4 550.3 12.4 550.3 171.2 550.6 171.2 550.6 171"/>
  <path class="st0" d="M782.5,113.8c-6.9,2.9-17.4,5.3-31.2,7.3-7.9,1.1-13.4,2.4-16.7,3.9-3.3,1.4-5.8,3.5-7.5,6.3-1.8,2.7-2.7,5.8-2.7,9.2,0,5.2,1.9,9.5,5.8,12.9,3.9,3.4,9.5,5.2,16.9,5.2s13.9-1.6,19.7-4.9c5.7-3.3,10-7.7,12.6-13.4,2.1-4.4,3.1-10.8,3.1-19.3v-7.1ZM784.1,157c-7.1,6.1-13.9,10.4-20.4,12.9-6.6,2.5-13.6,3.8-21.1,3.8-12.4,0-21.9-3.1-28.6-9.2-6.7-6.1-10-13.9-10-23.5s1.2-10.7,3.8-15.3c2.5-4.6,5.8-8.3,9.9-11.1s8.7-4.9,13.8-6.3c3.7-1,9.4-2,17-2.9,15.4-1.9,26.8-4.1,34.1-6.7,0-2.6,0-4.3,0-5,0-7.9-1.8-13.4-5.4-16.6-4.9-4.4-12.1-6.6-21.8-6.6s-15.6,1.6-19.9,4.8c-4.3,3.2-7.5,8.8-9.5,16.9l-18.7-2.6c1.7-8.1,4.5-14.6,8.4-19.6,3.9-5,9.5-8.8,16.9-11.5,7.4-2.7,15.9-4,25.6-4s17.5,1.1,23.5,3.4c6,2.3,10.4,5.2,13.3,8.6,2.8,3.5,4.8,7.9,5.9,13.2.6,3.3,1,9.2,1,17.8v25.8c0,17.9.4,29.3,1.2,34.1.8,4.8,2.4,9.3,4.8,13.7h-20c-2-4-3.3-8.7-3.8-14.1"/>
  <path class="st0" d="M782.5,113.8v-.3c-7,2.8-17.4,5.3-31.3,7.3-7.9,1.2-13.5,2.4-16.8,3.9-3.3,1.5-5.9,3.6-7.7,6.4h0c-1.8,2.8-2.7,5.9-2.7,9.3,0,5.2,2,9.6,5.9,13.1,3.9,3.5,9.6,5.2,17.1,5.2,7.4,0,14-1.7,19.8-4.9,5.8-3.3,10-7.8,12.8-13.5,2.1-4.4,3.1-10.9,3.1-19.4v-7.5l-.4.2v.3c.1,0-.2,0-.2,0v7.1c0,8.5-1,14.9-3.1,19.2-2.7,5.6-6.8,10-12.5,13.2-5.7,3.2-12.2,4.9-19.5,4.9-7.4,0-13-1.7-16.8-5.1-3.8-3.4-5.7-7.6-5.7-12.7,0-3.3.9-6.3,2.6-9h0c1.7-2.7,4.2-4.8,7.4-6.2,3.2-1.4,8.8-2.7,16.6-3.8,13.9-2,24.3-4.4,31.3-7.3v-.3h-.4.3ZM784.1,157l-.2-.2c-7.1,6.1-13.9,10.3-20.4,12.8-6.5,2.5-13.5,3.7-21,3.7-12.4,0-21.8-3-28.4-9.1-6.6-6.1-9.9-13.8-9.9-23.3,0-5.5,1.2-10.6,3.7-15.2,2.5-4.6,5.8-8.3,9.8-11,4-2.8,8.6-4.9,13.7-6.3v-.3c0,0,0,.3,0,.3,3.7-1,9.4-2,17-2.9,15.4-1.9,26.8-4.1,34.2-6.7h.2c0,0,0-.2,0-.2,0-2.6,0-4.3,0-5,0-7.9-1.8-13.5-5.5-16.8-4.9-4.4-12.3-6.6-22-6.6-9,0-15.7,1.6-20.1,4.8-4.4,3.2-7.5,8.9-9.6,17h.3c0,0,0-.2,0-.2l-18.7-2.6v.3s.2,0,.2,0c1.7-8.1,4.5-14.5,8.3-19.5,3.9-4.9,9.4-8.7,16.8-11.4,7.3-2.7,15.8-4,25.5-4,9.6,0,17.4,1.1,23.4,3.4,6,2.3,10.4,5.1,13.2,8.6,2.8,3.4,4.8,7.8,5.9,13h.3c0,0-.3,0-.3,0,.6,3.3,1,9.2,1,17.8v25.8c0,18,.4,29.3,1.2,34.1.8,4.8,2.4,9.4,4.9,13.8h.2v-.4h-20v.3h.2c-2-4.1-3.2-8.7-3.8-14.1v-.5c0,0-.4.3-.4.3l.2.2h-.3c.6,5.4,1.8,10.1,3.9,14.2v.2h20.7l-.2-.4c-2.4-4.3-4-8.9-4.8-13.6-.8-4.7-1.2-16.1-1.2-34v-25.8c0-8.6-.3-14.5-1-17.9h0s0,0,0,0c-1.1-5.3-3.1-9.7-6-13.3-2.9-3.5-7.3-6.4-13.4-8.7-6.1-2.3-13.9-3.4-23.6-3.5-9.7,0-18.3,1.3-25.7,4-7.4,2.7-13.1,6.6-17,11.6-3.9,5-6.7,11.6-8.4,19.7v.3c0,0,19.2,2.7,19.2,2.7v-.2c2.1-8,5.3-13.6,9.5-16.7,4.2-3.1,10.8-4.7,19.8-4.7,9.6,0,16.8,2.2,21.6,6.5,3.5,3.1,5.3,8.6,5.3,16.4,0,.7,0,2.4,0,5h.3s0-.2,0-.2c-7.3,2.6-18.6,4.8-34,6.6-7.6.9-13.3,1.9-17,2.9h0s0,0,0,0c-5.1,1.4-9.7,3.6-13.8,6.4-4.1,2.8-7.4,6.6-10,11.2-2.5,4.7-3.8,9.8-3.8,15.4,0,9.6,3.4,17.5,10.1,23.7,6.7,6.2,16.3,9.3,28.8,9.3,7.5,0,14.6-1.3,21.2-3.8,6.6-2.5,13.4-6.8,20.5-12.9l-.2-.2h-.3s.3,0,.3,0Z"/>
  <rect class="st0" x="836" y="12.6" width="16.8" height="158.3"/>
  <polygon class="st0" points="836 12.6 836 12.9 852.6 12.9 852.6 170.7 836.3 170.7 836.3 12.6 836 12.6 836 12.9 836 12.6 835.8 12.6 835.8 171.2 853.1 171.2 853.1 12.4 835.8 12.4 835.8 12.6 836 12.6"/>
  <rect class="st0" x="886.3" y="12.6" width="16.8" height="158.3"/>
  <polygon class="st0" points="886.3 13.6 886.3 13.9 902.8 13.9 902.8 171.7 886.6 171.7 886.6 13.6 886.3 13.6 886.3 13.9 886.3 13.6 886 13.6 886 172.2 903.4 172.2 903.4 13.4 886 13.4 886 13.6 886.3 13.6"/>
  <path class="st0" d="M8.7,400.6v-158.3h31.6l37.6,112.1c3.5,10.4,6,18.3,7.6,23.4,1.8-5.7,4.6-14.2,8.5-25.4l38-110.2h28.3v158.3h-20.2v-132.5l-46.1,132.5h-19l-45.9-134.8v134.8H8.7Z"/>
  <path class="st0" d="M332.8,343.5c-6.9,2.9-17.4,5.3-31.2,7.3-7.9,1.1-13.4,2.4-16.7,3.9-3.3,1.4-5.8,3.5-7.5,6.3-1.8,2.7-2.7,5.8-2.7,9.2,0,5.2,1.9,9.5,5.8,12.9,3.9,3.4,9.5,5.2,16.9,5.2s13.9-1.6,19.7-4.9c5.7-3.3,10-7.7,12.6-13.4,2.1-4.4,3.1-10.8,3.1-19.3v-7.1ZM334.4,386.6c-7.1,6.1-13.9,10.4-20.4,12.9-6.6,2.5-13.6,3.8-21.1,3.8-12.4,0-21.9-3.1-28.6-9.2-6.7-6.1-10-13.9-10-23.5s1.2-10.7,3.8-15.3,5.8-8.3,9.9-11.1c4.1-2.8,8.7-4.9,13.8-6.3,3.7-1,9.4-2,17-2.9,15.4-1.9,26.8-4.1,34.1-6.7,0-2.6,0-4.3,0-5,0-7.9-1.8-13.4-5.4-16.6-4.9-4.4-12.1-6.6-21.8-6.6s-15.6,1.6-19.9,4.8c-4.3,3.2-7.5,8.8-9.5,16.9l-18.7-2.6c1.7-8.1,4.5-14.6,8.4-19.6,3.9-5,9.5-8.8,16.9-11.5,7.4-2.7,15.9-4,25.6-4s17.5,1.1,23.5,3.4c6,2.3,10.4,5.2,13.3,8.6,2.8,3.5,4.8,7.9,5.9,13.2.6,3.3,1,9.2,1,17.8v25.8c0,17.9.4,29.3,1.2,34.1.8,4.8,2.4,9.3,4.8,13.7h-20c-2-4-3.3-8.7-3.8-14.1"/>
  <path class="st0" d="M444.9,366.7l19-3c1.1,7.7,4,13.5,8.9,17.6,4.9,4.1,11.7,6.1,20.4,6.1s15.4-1.8,19.6-5.4c4.3-3.6,6.4-7.8,6.4-12.7s-1.9-7.8-5.6-10.3c-2.6-1.7-9.2-3.9-19.6-6.5-14.1-3.6-23.8-6.7-29.3-9.3-5.4-2.6-9.6-6.2-12.4-10.8-2.8-4.6-4.2-9.7-4.2-15.3s1.1-9.8,3.5-14.1c2.3-4.3,5.5-7.9,9.4-10.8,3-2.2,7.1-4.1,12.2-5.6,5.2-1.5,10.7-2.3,16.6-2.3,8.9,0,16.7,1.3,23.4,3.9,6.7,2.6,11.7,6.1,14.9,10.5,3.2,4.4,5.4,10.3,6.6,17.7l-18.8,2.6c-.9-5.9-3.3-10.4-7.4-13.7-4.1-3.3-9.9-4.9-17.3-4.9s-15.1,1.5-18.9,4.4c-3.8,2.9-5.7,6.4-5.7,10.3s.8,4.7,2.3,6.7c1.6,2.1,4,3.8,7.4,5.2,1.9.7,7.6,2.4,17,4.9,13.6,3.6,23.1,6.6,28.4,8.9,5.4,2.3,9.6,5.7,12.6,10.1,3.1,4.4,4.6,10,4.6,16.5s-1.9,12.5-5.6,18.2c-3.7,5.7-9.1,10.1-16.2,13.2-7,3.1-15,4.7-23.9,4.7-14.7,0-25.9-3.1-33.7-9.2-7.7-6.2-12.6-15.3-14.8-27.4"/>
  <path class="st0" d="M623.8,366.7l19-3c1.1,7.7,4,13.5,8.9,17.6,4.9,4.1,11.7,6.1,20.4,6.1s15.4-1.8,19.6-5.4c4.3-3.6,6.4-7.8,6.4-12.7s-1.9-7.8-5.6-10.3c-2.6-1.7-9.2-3.9-19.6-6.5-14.1-3.6-23.8-6.7-29.3-9.3-5.4-2.6-9.6-6.2-12.4-10.8-2.8-4.6-4.2-9.7-4.2-15.3s1.1-9.8,3.5-14.1c2.3-4.3,5.5-7.9,9.4-10.8,3-2.2,7.1-4.1,12.2-5.6,5.2-1.5,10.7-2.3,16.6-2.3,8.9,0,16.7,1.3,23.4,3.9,6.7,2.6,11.7,6.1,14.9,10.5,3.2,4.4,5.4,10.3,6.6,17.7l-18.8,2.6c-.9-5.9-3.3-10.4-7.4-13.7-4.1-3.3-9.9-4.9-17.3-4.9s-15.1,1.5-18.9,4.4c-3.8,2.9-5.7,6.4-5.7,10.3s.8,4.7,2.3,6.7c1.6,2.1,4,3.8,7.4,5.2,1.9.7,7.6,2.4,17,4.9,13.6,3.6,23.1,6.6,28.4,8.9,5.4,2.3,9.6,5.7,12.6,10.1,3.1,4.4,4.6,10,4.6,16.5s-1.9,12.5-5.6,18.2c-3.7,5.7-9.1,10.1-16.2,13.2-7,3.1-15,4.7-23.9,4.7-14.7,0-25.9-3.1-33.7-9.2-7.7-6.2-12.6-15.3-14.8-27.4"/>
  <path class="st0" d="M882.2,343.5c-6.9,2.9-17.4,5.3-31.2,7.3-7.9,1.1-13.4,2.4-16.7,3.9-3.3,1.4-5.8,3.5-7.5,6.3-1.8,2.7-2.7,5.8-2.7,9.2,0,5.2,1.9,9.5,5.8,12.9,3.9,3.4,9.5,5.2,16.9,5.2s13.9-1.6,19.7-4.9c5.7-3.3,10-7.7,12.6-13.4,2.1-4.4,3.1-10.8,3.1-19.3v-7.1ZM883.8,386.6c-7.1,6.1-13.9,10.4-20.4,12.9-6.6,2.5-13.6,3.8-21.1,3.8-12.4,0-21.9-3.1-28.6-9.2-6.7-6.1-10-13.9-10-23.5s1.2-10.7,3.8-15.3c2.5-4.6,5.8-8.3,9.9-11.1,4.1-2.8,8.7-4.9,13.8-6.3,3.7-1,9.4-2,17-2.9,15.4-1.9,26.8-4.1,34.1-6.7,0-2.6,0-4.3,0-5,0-7.9-1.8-13.4-5.4-16.6-4.9-4.4-12.1-6.6-21.8-6.6s-15.6,1.6-19.9,4.8c-4.3,3.2-7.5,8.8-9.5,16.9l-18.7-2.6c1.7-8.1,4.5-14.6,8.4-19.6,3.9-5,9.5-8.8,16.9-11.5,7.4-2.7,15.9-4,25.6-4s17.5,1.1,23.5,3.4c6,2.3,10.4,5.2,13.3,8.6,2.8,3.5,4.8,7.9,5.9,13.2.6,3.3,1,9.2,1,17.8v25.8c0,17.9.4,29.3,1.2,34.1.8,4.8,2.4,9.3,4.8,13.7h-20c-2-4-3.3-8.7-3.8-14.1"/>
  <path class="st0" d="M1014.2,342.1c0,15.1,3,26,8.9,33,5.9,6.9,13.4,10.4,22.3,10.4s16.3-3.4,22.3-10.3c6-6.9,9-17.7,9-32.4s-3.1-24.6-9.3-31.8c-6.2-7.1-13.6-10.7-22.4-10.7s-15.9,3.5-21.9,10.5c-6,7-9,17.5-9,31.3M998.2,411l18.8,2.8c.8,5.8,3,10.1,6.5,12.8,4.8,3.6,11.3,5.4,19.6,5.4s15.8-1.8,20.7-5.4c4.9-3.6,8.1-8.7,9.9-15.1,1-4,1.5-12.3,1.4-25-8.4,10-18.9,15-31.5,15s-27.8-5.7-36.3-17.1c-8.6-11.4-12.9-25-12.9-41s2-21.1,5.9-30.3c3.9-9.3,9.6-16.4,17.1-21.5,7.5-5,16.2-7.6,26.3-7.6s24.5,5.5,33.2,16.4v-13.8h17.8v99.2c0,17.9-1.8,30.5-5.4,38-3.6,7.5-9.3,13.4-17.1,17.7-7.8,4.3-17.5,6.5-28.9,6.5s-24.6-3.1-32.9-9.2c-8.4-6.2-12.4-15.4-12.1-27.8"/>
  <path class="st0" d="M1207.9,332.8h63.4c-.9-9.6-3.3-16.8-7.3-21.6-6.1-7.4-14.1-11.2-23.8-11.2s-16.3,3-22.3,8.9c-6,5.9-9.4,13.9-10,23.8M1271.1,364l19.9,2.5c-3.1,11.7-8.9,20.7-17.4,27.2-8.5,6.4-19.3,9.7-32.5,9.7s-29.8-5.1-39.5-15.4c-9.7-10.3-14.6-24.7-14.6-43.2s4.9-34.1,14.7-44.7c9.8-10.6,22.6-15.9,38.3-15.9s27.6,5.2,37.2,15.6c9.6,10.4,14.4,25,14.4,43.8s0,2.9-.1,5.1h-84.7c.7,12.5,4.2,22.1,10.6,28.8,6.3,6.7,14.2,10,23.7,10s13.1-1.9,18.1-5.6c5-3.7,8.9-9.7,11.9-17.8"/>
  <path class="st0" d="M6.3,206.8v4h339.1v-8.8H2.3v8.8h4v-4h4v-.8h-4v4h335.1v-4h-4v.8h4v-4H6.3v4h4-4ZM434.9,206.8v4h855v-8.8H430.9v8.8h4v-4h4v-.8h-4v4h851v-4h-4v.8h4v-4H434.9v4h4-4Z"/>
  <path class="st0" d="M932.4,7.6c-.3,4,11,11.7,14.2,14.8,6.4,6.2,12.9,11.6,19.3,17.6,12,11.3,23.2,20.7,40,24,8.2,1.6,18.1.2,26.5.2,10.1,0,20.3.2,30.5.3,16.3.1,31.4,1.8,47.6,2,15.8.2,30.7,2.3,46.5,2.9,6.9.2,13.3,1.6,20.3,2,7.6.4,16.3.7,23.6,2.5,8.6,2.1,16.2,6.4,24.5,9.6,7.6,2.9,15.5,6.4,22.9,9.2,6.8,2.6,14.6,6,21.6,9.2,3.4,1.6,11.1,2.7,13.6,5.3,2.8,2.8,2.7,9.5-.9,11.6-4.3,2.5-13-1.5-17.4-2.5-5.1-1.1-10.1-2.4-15.1-3.6-9.2-2.2-17.7-5.6-26.9-8.2-14.1-3.9-29.5-2.6-44.4-2.4-12.1.1-23.6,1-33.9,7.1-6.9,4.1-13.2,10.1-18.7,16.3-5,5.6-6.7,11.5-15.2,9.3-.4-.1-3.6-1.9-4.2-2.2-1.9-.9-3.7-1.4-5.6-2.3-7.7-3.7-16.5-5.9-23.9-9.4-4.9-2.3-10.3-4.6-15.7-6.9-4-1.7-8.9-3.9-13.2-4.9.7,6,11.9,8.6,16.6,10.3,6.6,2.4,12.8,5.4,19.3,8.1,13.1,5.4,25.9,9.5,39.3,14.6,10.9,4.1,41.1,11.8,34,29.1-7,17.2-35.2,4-46.9.6-6.7-1.9-12.3-4.7-19-6.4-1.2-.3-1.4-1.6-2.9-1.9-2.8-.6-5.9,0-8.8-.6-6.1-1.3-8.8-.9-15,.2-3,.5-6.3-.3-9.2.5-1.5.4-2.3,1.6-3.8,2-4.5,1-9.1,1.8-13.6,2.5-5.5.8-11.2,1.6-16.7,2-6.2.4-10.7-1-16.6-1.9-24.6-3.6-38.8-26.4-57.5-40.5-2.8-2.1-5.2-4.9-8.1-7-2.7-1.9-7.2-4-7.6-7.5-.3-2.8,1.9-3.7,2.4-5.8.8-3.1.6-7.1.7-10.2.2-7.7-.7-14.7-2.2-22.1-2.2-10.6-4.3-21.1-6.2-31.8-1.2-6.7-1.5-13.4-1.5-20.4,0-4.3.3-6.9,1.6-10.7,1.3-4.2,1-4.4,5.6-4.4,0,.6-1.5,0,0,0"/>
  <path class="st0" d="M1211.7,132.9c.7,2.5,4.6,3.7,6.5,5.3,2.8,2.3,5.5,5.2,7.9,7.6,1.6,1.5,5.5,4.2,6.3,6,2.1,4.5-2.1,7.5-6.5,7-6.6-.8-13.9-6.7-19.2-9.6-7.3-4-14.1-6.6-22.1-9.7-3.6-1.4-7.6-3.2-11.3-4.2-2.2-.6-4.6-.1-6.9-.5-2-.3-3.7-1.5-5.4-1.8-4.8-.9-35.5,5-36.6,1.3-.9-3.2,11.4-12.6,14-14.9,3.8-3.5,6.7-4.2,12.5-2.9,4.2,1,8.7,1.7,13,2.7,7.3,1.7,15.5,4.1,23,6,4.6,1.2,9.2,1.6,13.9,3,3.9,1.1,6.8,4,10.9,4.7.3,1-1-.2,0,0"/>
  <path class="st0" d="M1261.7,154.2c0,.9.7,6.5,0,7.5-1.4,2-2.7,1.5-5.7,1.5s-6.8-.3-9.9-2.6c-3.1-2.4-6-5.9-9-8.8-6-5.9-12.7-14.1-19.5-19-8.7-6.3-19.4-9.6-29.6-12-6.3-1.5-12.6-2.8-18.9-4.4-3-.7-6.2-.9-9.1-1.6-4.9-1.2-7.2-.2-7.8-5.6,3.6-.3,6.2-1.6,9.5-2.3,4.4-.9,9.5-.2,14-.2,8.2,0,12.9,1.6,19.9,4.2,9.4,3.5,18.7,6.9,27.7,10.1,7.7,2.8,14.1,7.7,20,13.4,2.7,2.7,6.1,5.4,8.8,8.9,2.7,3.5,5.5,8.8,9.6,10.8,0,3.1-1-.5,0,0"/>
  <path class="st0" d="M1198.4,105.6c6.1-2.6,12.6.9,18.8,2.3,4.9,1.2,9.3,1.8,13.9,3.5,9.4,3.4,19,4.7,28.1,9.3,8.2,4.2,13,12.2,18.2,19.2,2.5,3.4,4.8,5.8,6.5,9.6.7,1.5,3,4.8,1.6,6.6-1.2,1.5-12.1.5-13.9.1-8.5-2-12.4-10.7-18-16.5-3.9-4.1-8.3-8.3-12.6-11.8-7.1-5.7-12.3-8.2-20.8-12-3.3-1.4-6.4-3-9.8-4.3-2-.8-3.6-1.1-5.6-2.2-1.8-1-4.3-3.2-6.3-3.8,3.2-1.3,2.5.8,0,0"/>
</svg>