<?xml version="1.0" encoding="UTF-8"?>
<svg id="Group_86" xmlns="http://www.w3.org/2000/svg" version="1.1" viewBox="0 0 287.1 78.3">
  <!-- Generator: Adobe Illustrator 29.7.0, SVG Export Plug-In . SVG Version: 2.1.1 Build 138)  -->
  <defs>
    <style>
      .st0 {
        fill: #fff;
      }
    </style>
  </defs>
  <g id="Group_33">
    <path id="Path_23" class="st0" d="M0,.7v71.3h44.1v-8.4H9.4V.7H0Z"/>
    <path id="Path_24" class="st0" d="M55.2,72V.7h9.4v29.3h37V.7h9.4v71.3h-9.4v-33.6h-37v33.6h-9.4Z"/>
  </g>
  <g id="Group_9">
    <g id="Group_8">
      <path id="Path_26" class="st0" d="M127.9.9c-.2,1.8,4.9,5.3,6.4,6.7,2.9,2.8,5.8,5.2,8.7,7.9,5.4,5.1,10.4,9.3,18,10.8,3.7.7,8.1,0,11.9,0h13.7c7.3.2,14.1.9,21.4,1,7.1,0,13.8,1,20.9,1.3,3.1.1,6,.8,9.2.9,3.6,0,7.1.4,10.6,1.1,3.9.9,7.3,2.9,11,4.3,3.4,1.3,7,2.9,10.3,4.2,3.1,1.2,6.6,2.7,9.7,4.1,1.5.7,5,1.2,6.2,2.4,1.3,1.3,1.2,4.3-.4,5.2-1.9,1.1-5.9-.7-7.8-1.1-2.3-.5-4.6-1.1-6.8-1.6-4.1-1-7.9-2.5-12.1-3.7-6.3-1.8-13.2-1.2-20-1.1-5.4,0-10.6.4-15.3,3.2-3.2,2-6,4.5-8.4,7.3-2.2,2.5-3,5.2-6.8,4.2-.2,0-1.7-.9-1.9-1-.9-.4-1.7-.6-2.5-1-3.5-1.7-7.5-2.6-10.8-4.3-2.2-1.1-4.6-2.1-7.1-3.1-1.9-.9-3.9-1.6-6-2.2.3,2.7,5.3,3.9,7.5,4.6,3,1.1,5.7,2.4,8.7,3.6,5.9,2.4,11.6,4.3,17.7,6.6,4.9,1.8,18.5,5.3,15.3,13.1-3.1,7.8-15.8,1.8-21.1.3-3-.9-5.5-2.1-8.5-2.9-.5-.1-.6-.7-1.3-.9-1.3-.3-2.6,0-4-.3-2.2-.5-4.5-.5-6.7,0-1.3.2-2.8-.1-4.2.2-.7.2-1,.7-1.7.9-2,.4-4.1.8-6.1,1.1-2.5.4-5.1.8-7.5.9-2.8.2-4.8-.4-7.5-.9-11.1-1.6-17.5-11.9-25.9-18.2-1.3-.9-2.3-2.2-3.7-3.1-1.2-.9-3.2-1.8-3.4-3.4-.1-1.3.9-1.7,1.1-2.6.3-1.5.4-3.1.3-4.6,0-3.3-.3-6.7-1-10-1-4.8-1.9-9.5-2.8-14.3-.5-3-.7-6.1-.7-9.2,0-1.6.2-3.3.7-4.8.6-1.8.5-1.9,2.6-1.9,0,.3-.7,0,0,0"/>
      <path id="Path_27" class="st0" d="M253.6,57.3c.3,1.1,2.1,1.7,2.9,2.4,1.3,1,2.5,2.3,3.6,3.4.7.7,2.5,1.9,2.8,2.7.9,2-.9,3.4-2.9,3.1-3-.4-6.2-3-8.6-4.3-3.2-1.7-6.5-3.1-9.9-4.4-1.7-.6-3.4-1.4-5.1-1.9-1-.3-2.1,0-3.1-.2-.9-.1-1.7-.7-2.5-.8-2.2-.4-16,2.2-16.5.6-.4-1.4,5.1-5.7,6.3-6.7,1.7-1.6,3-1.9,5.6-1.3,1.9.4,3.9.8,5.8,1.2,3.3.8,7,1.8,10.3,2.7,2.1.5,4.2.7,6.2,1.3,1.8.4,3.1,1.8,4.9,2.1,0,.4-.4,0,0,0"/>
      <path id="Path_28" class="st0" d="M276.1,66.9c0,.4.3,2.9,0,3.4-.6.9-1.2.7-2.6.7-1.6.2-3.2-.3-4.4-1.2-1.4-1.2-2.8-2.6-4-4-2.7-2.6-5.7-6.3-8.8-8.5-3.9-2.8-8.7-4.3-13.3-5.4-2.8-.7-5.7-1.3-8.5-2-1.3-.3-2.8-.4-4.1-.7-2.2-.5-3.2,0-3.5-2.5,1.4-.2,2.9-.6,4.3-1,2-.4,4.3,0,6.3,0,3.1,0,6.1.7,8.9,1.9,4.2,1.6,8.4,3.1,12.5,4.5,3.4,1.3,6.5,3.4,9,6.1,1.4,1.2,2.7,2.6,4,4,1.3,1.6,2.5,4,4.4,4.8,0,1.4-.4-.2,0,0"/>
      <path id="Path_29" class="st0" d="M247.6,45c2.7-1.2,5.7.4,8.4,1,2.1.4,4.2.9,6.2,1.6,4.3,1.5,8.6,2.1,12.7,4.2,3.7,1.9,5.8,5.5,8.2,8.7,1.1,1.3,2.1,2.8,2.9,4.4.3.7,1.3,2.2.7,3-.5.7-5.5.2-6.3,0-3.8-.9-5.6-4.8-8.1-7.4-1.8-1.9-3.7-3.7-5.7-5.3-2.8-2.3-6-4.1-9.4-5.4-1.5-.6-2.9-1.3-4.4-1.9-.9-.3-1.7-.6-2.5-1-.9-.7-1.8-1.3-2.8-1.8,1.4-.6,1.1.4,0,0"/>
    </g>
  </g>
</svg>