<svg id="Group_86" data-name="Group 86" xmlns="http://www.w3.org/2000/svg" xmlns:xlink="http://www.w3.org/1999/xlink" width="225.789" height="72.623" viewBox="0 0 225.789 72.623">
  <defs>
    <clipPath id="clip-path">
      <rect id="Rectangle_21" data-name="Rectangle 21" width="93.554" height="72.623" fill="none"/>
    </clipPath>
  </defs>
  <g id="Group_32" data-name="Group 32" transform="translate(132.235)">
    <g id="Group_31" data-name="Group 31" clip-path="url(#clip-path)">
      <path id="Path_86" data-name="Path 86" d="M89.669,98.03c0,1.19.529,1.917,1.565,1.917,1.146,0,2.358-1.455,2.645-3.262l.441-2.953a3.534,3.534,0,0,0-.97-.132c-2.05,0-3.681,2.028-3.681,4.43" transform="translate(-69.906 -72.97)" fill="#fff"/>
      <path id="Path_87" data-name="Path 87" d="M93.554,28.057c0-.485-.176-.6-.617-.573-1.411.022-6.326,0-7.736,0H75.878c-.485,0-.793-.066-.948-.617-.22-.793-.551-1.543-.838-2.314-.176-.485-.331-.97-.529-1.565H87.691A2.736,2.736,0,0,0,90.6,20.057V2.909A2.566,2.566,0,0,0,89.1.4a5.152,5.152,0,0,0-1.94-.375C78.721,0,60.67,0,52.228,0c-2.27,0-3.394,1.124-3.394,3.372V20.211a2.86,2.86,0,0,0,2.887,2.777c2.865-.066,10.557-.022,13.445-.022.22,0,.441.044.705.066-.044.287-.022.4-.154.551A3.881,3.881,0,0,0,64.7,25.919c-.11,1.366-.375,1.543-1.014,1.543H39.754c.066-.309.088-.507.132-.683.353-1.984.749-3.945,1.058-5.951.331-2.16.639-4.342.86-6.5.154-1.543.573-3.108.088-4.65a17.074,17.074,0,0,0-1.212-3.526,6.91,6.91,0,0,0-6.3-3.306C26.133,2.755,17.912,2.821,9.669,2.8a11.42,11.42,0,0,0-4.122.793A8.656,8.656,0,0,0,.081,12.717c.088.6.154,1.212.242,1.807.331,2.006.661,4.011,1.036,5.995.4,2.072.882,4.122,1.3,6.193.154.749,1.146,4.254,1.234,4.783.176.926.6,3.306.771,4.21.441,2.226.838,4.452,1.3,6.678a38.543,38.543,0,0,0,1.19,4.761,4.937,4.937,0,0,0,4.606,3.416c1.829.044,3.681.066,5.51.066.529,0,.661.154.661.683q-.033,5.257,0,10.513c0,.529-.154.661-.661.661-3.174-.022-6.348-.022-9.5,0-.838,0-1.675-.022-2.513.044A2.745,2.745,0,0,0,2.7,65.173a18.976,18.976,0,0,0,0,1.94,4.542,4.542,0,0,0,.353,1.455,3.541,3.541,0,0,0,5.973.86,1.116,1.116,0,0,1,.9-.4c2.138.022,4.276,0,6.392,0,1.1,0,1.08,0,1.389,1.1a3.474,3.474,0,0,0,2.865,2.4,3.572,3.572,0,0,0,4.077-2.953c.11-.485.309-.573.749-.551q3.141.033,6.281,0a1.98,1.98,0,0,1,1.521.617,3.681,3.681,0,0,0,6.127-1.565,8.021,8.021,0,0,0,.154-2.909,3.71,3.71,0,0,0-.683-1.741,2.729,2.729,0,0,0-2.424-.926H24.877c-.4,0-.639-.044-.639-.551.022-3.593.022-7.163,0-10.756a.457.457,0,0,1,.485-.463c1.344.022,2.711.022,4.055,0a8.729,8.729,0,0,0,3.813-.815c2.446-1.256,3.438-3.526,4.1-5.973.309-1.146.353-2.358.551-3.526.441-2.424.9-4.827,1.344-7.251.088-.551.331-.727.882-.727q8.364.033,16.729.022c.948,0,.948,0,.948.948v38.5c0,.463.044.705.617.705q17.588-.033,35.154,0c.441,0,.617-.11.617-.6q0-22.051.022-43.97M65.144,52.742h0v3.879a1.754,1.754,0,1,1-3.5.088c-.022-2.623-.022-5.246,0-7.846a1.757,1.757,0,1,1,3.5.088v3.791M53.4,20.608a2.549,2.549,0,0,1-2.535-2.535V4.342A2.549,2.549,0,0,1,53.4,1.807H86.259a2.549,2.549,0,0,1,2.535,2.535V18.073a2.549,2.549,0,0,1-2.535,2.535Z" transform="translate(0)" fill="#fff"/>
    </g>
  </g>
  <path id="Path_23" data-name="Path 23" d="M0,1.846v71.52H44.3V64.939H9.374V1.846Z" transform="translate(0 -1.014)" fill="#fff"/>
  <path id="Path_24" data-name="Path 24" d="M178.932,73.366V1.846h-9.464V31.229h-37.09V1.846H122.96v71.52h9.419V39.656h37.09v33.71Z" transform="translate(-65.123 -1.014)" fill="#fff"/>
</svg>
