<?xml version="1.0" encoding="UTF-8"?>
<svg id="Group_86" xmlns="http://www.w3.org/2000/svg" version="1.1" viewBox="0 0 287.1 78.3">
  <!-- Generator: Adobe Illustrator 29.7.0, SVG Export Plug-In . SVG Version: 2.1.1 Build 138)  -->
  <defs>
    <style>
      .st0 {
        fill: #fff;
      }
    </style>
  </defs>
  <g id="Group_33">
    <path id="Path_23" class="st0" d="M0,.7v71.3h44.1v-8.4H9.4V.7H0Z"/>
    <path id="Path_24" class="st0" d="M55.2,72V.7h9.4v29.3h37V.7h9.4v71.3h-9.4v-33.6h-37v33.6h-9.4Z"/>
  </g>
  <g id="Group_32">
    <g id="Group_31">
      <path id="Path_86" class="st0" d="M152.8,25.8c0,1.2.5,2,1.6,2s2.4-1.5,2.7-3.4l.5-3c-.3,0-.7-.1-1-.1-2.1,0-3.8,2.1-3.8,4.6"/>
      <path id="Path_87" class="st0" d="M221.5,28.9c0-.5-.2-.6-.6-.6-1.5,0-6.5,0-8,0h-9.6c-.5,0-.8,0-1-.6-.2-.8-.6-1.6-.9-2.4-.2-.5-.3-1-.5-1.6h14.5c1.6.1,2.9-1.1,3-2.6,0-.1,0-.3,0-.4V3c0-1.1-.5-2.1-1.5-2.6-.6-.3-1.3-.4-2-.4-8.7,0-27.3,0-35.9,0s-3.5,1.2-3.5,3.5v17.3c0,1.6,1.4,2.9,3,2.9,2.9,0,10.9,0,13.8,0s.5,0,.7,0c0,.3,0,.4-.2.6-.6.7-1,1.5-1,2.4-.1,1.4-.4,1.6-1,1.6h-24.6c0-.3,0-.5.1-.7.4-2,.8-4.1,1.1-6.1.3-2.2.7-4.5.9-6.7.2-1.6.6-3.2,0-4.8-.3-1.3-.7-2.5-1.2-3.6-1.4-2.2-3.9-3.6-6.5-3.4-8.5,0-16.9,0-25.4,0-1.5,0-2.9.3-4.2.8-3.8,1.5-6.1,5.3-5.6,9.4,0,.6.2,1.2.2,1.9.3,2.1.7,4.1,1.1,6.2.4,2.1.9,4.2,1.3,6.4.2.8,1.2,4.4,1.3,4.9.2,1,.6,3.4.8,4.3.5,2.3.9,4.6,1.3,6.9.3,1.7.7,3.3,1.2,4.9.7,2.1,2.6,3.5,4.7,3.5,1.9,0,3.8,0,5.7,0s.7.2.7.7c0,3.6,0,7.2,0,10.8,0,.5-.2.7-.7.7-3.3,0-6.5,0-9.8,0-.9,0-1.7,0-2.6,0-1.4,0-2.6,1.3-2.6,2.7,0,.7,0,1.3,0,2,0,.5.2,1,.4,1.5.8,1.8,2.9,2.7,4.8,1.9.5-.2,1-.6,1.4-1,.2-.3.6-.4.9-.4,2.2,0,4.4,0,6.6,0s1.1,0,1.4,1.1c.4,1.3,1.6,2.3,2.9,2.5,2,.3,3.9-1,4.2-3,.1-.5.3-.6.8-.6,2.2,0,4.3,0,6.5,0,.6,0,1.2.2,1.6.6,1.5,1.5,3.9,1.5,5.4,0,.4-.4.8-1,.9-1.6.2-1,.3-2,.2-3,0-.6-.3-1.3-.7-1.8-.6-.7-1.6-1.1-2.5-1h-11.8c-.4,0-.7,0-.7-.6,0-3.7,0-7.4,0-11.1,0-.3.2-.5.5-.5,0,0,0,0,0,0,1.4,0,2.8,0,4.2,0,1.4,0,2.7-.3,3.9-.8,2.5-1.3,3.5-3.6,4.2-6.1.3-1.2.4-2.4.6-3.6.5-2.5.9-5,1.4-7.5,0-.6.3-.7.9-.7,5.7,0,11.5,0,17.2,0q1,0,1,1v43.6c0,.5,0,.7.6.7,12.1,0,24.1,0,36.2,0,.5,0,.6-.1.6-.6,0-15.1,0-34.2,0-49.2M192.3,54.3h0v4c0,1-.6,1.9-1.6,2-1,0-1.9-.6-2-1.6,0,0,0-.2,0-.2,0-2.7,0-5.4,0-8.1,0-1,.7-1.9,1.7-1.9,1,0,1.9.7,1.9,1.7,0,.1,0,.2,0,.3v3.9M180.2,21.2c-1.4,0-2.6-1.2-2.6-2.6V4.5c0-1.4,1.2-2.6,2.6-2.6h33.8c1.4,0,2.6,1.2,2.6,2.6v14.1c0,1.4-1.2,2.6-2.6,2.6h-33.8Z"/>
    </g>
  </g>
</svg>