<?xml version="1.0" encoding="UTF-8"?>
<svg id="Layer_1" xmlns="http://www.w3.org/2000/svg" version="1.1" viewBox="0 0 278.4 203.8">
  <!-- Generator: Adobe Illustrator 29.7.0, SVG Export Plug-In . SVG Version: 2.1.1 Build 138)  -->
  <defs>
    <style>
      .st0 {
        fill: #fff;
      }
    </style>
  </defs>
  <path class="st0" d="M195.3,95v78.7c0,13.3-10.8,24.1-24.1,24.1H30.4c-13.3,0-24.1-10.8-24.1-24.1V32.9c0-13.3,10.8-24.1,24.1-24.1h140.8c13.3,0,24.1,10.8,24.1,24.1v16.8l6.1-5.2v-11.6c0-16.6-13.5-30.1-30.1-30.1H30.4C13.8,2.8.3,16.3.3,32.9v140.8c0,16.6,13.5,30.1,30.1,30.1h140.8c16.6,0,30.1-13.5,30.1-30.1v-83.9l-6.1,5.2Z"/>
  <path class="st0" d="M274.1.3l4,4.6L98.8,159.7l-41.2-55.3,4.9-3.6,37.3,50.1L274.1.3"/>
</svg>