<svg xmlns="http://www.w3.org/2000/svg" width="309.231" height="46.584" viewBox="0 0 309.231 46.584">
  <path id="wordmark" d="M307.567,37.016a1.665,1.665,0,1,0,1.664,1.665,1.665,1.665,0,0,0-1.664-1.665m0,3.069a1.4,1.4,0,1,1,1.4-1.4,1.4,1.4,0,0,1-1.4,1.4m.541-1.687a.476.476,0,0,0-.533-.483h-.533v1.517h.262v-.55h.284l.275.55h.281l-.3-.607a.442.442,0,0,0,.26-.427m-.544.252h-.258v-.5h.258c.175,0,.281.088.281.251s-.107.254-.281.254ZM111.544,16.1h2.888v5.718h-3.38c-2.6,0-4.274,1.277-4.274,3.881V40.074H100.6V16.1h6.179V20.13a4.555,4.555,0,0,1,4.766-4.028m12.411-5.7a3.734,3.734,0,1,1-3.733-3.783,3.733,3.733,0,0,1,3.733,3.783m-6.815,5.7h6.16V40.073h-6.163Zm23.133-.4A11.922,11.922,0,0,0,133,18.128V16.1h-6.161V47.11H133V38.047a11.922,11.922,0,0,0,7.274,2.432,12.391,12.391,0,0,0,0-24.781m-.543,19.122a6.731,6.731,0,1,1,6.731-6.731,6.731,6.731,0,0,1-6.731,6.731M265.641,32.5c0,4.622-3.965,7.977-9.428,7.977s-9.628-3.435-9.628-8.353v-.134h6.03v.134a3.355,3.355,0,0,0,3.648,3.431c2.183,0,3.5-1.021,3.5-2.54,0-1.439-.973-2.244-3.589-2.967l-3.444-.939c-3.619-.98-5.694-3.338-5.694-6.469,0-4.024,3.8-6.944,9.029-6.944s8.83,2.922,8.83,7.273v.136h-5.681v-.136a2.9,2.9,0,0,0-3.149-2.634c-1.855,0-3.149.851-3.149,2.07s.922,1.976,3.287,2.591l3.6.986c4.83,1.289,5.843,4.256,5.843,6.517M174.533,18.129a11.922,11.922,0,0,0-7.277-2.432,12.391,12.391,0,0,0,0,24.782,11.922,11.922,0,0,0,7.274-2.432v2.027h6.162V16.1H174.53Zm0,9.959a6.731,6.731,0,1,1-6.731-6.732,6.731,6.731,0,0,1,6.731,6.732Zm28.42-9.959a11.922,11.922,0,0,0-7.274-2.432,12.391,12.391,0,1,0,0,24.782,11.922,11.922,0,0,0,7.274-2.432v2.027h6.163V7.569h-6.163Zm-6.73,16.69a6.731,6.731,0,1,1,6.73-6.732,6.731,6.731,0,0,1-6.73,6.732M237.737,16.1H243.9V40.073h-6.163Zm6.815-5.7a3.734,3.734,0,1,1-3.733-3.783,3.733,3.733,0,0,1,3.733,3.783ZM279.9,15.7A12.391,12.391,0,1,0,292.284,28.09,12.391,12.391,0,0,0,279.9,15.7Zm0,19.122a6.731,6.731,0,1,1,6.732-6.731,6.731,6.731,0,0,1-6.732,6.731h0ZM103.623,13.068H94.871V40.073H88.73V13.068H79.977v-5.5h23.643ZM228.681,16.1h6.474l-8.272,23.972H219.47L211.242,16.1h6.474L223.2,33.509Zm77.4,0h2.888v5.718h-3.38c-2.6,0-4.274,1.277-4.274,3.881V40.074h-6.178V16.1h6.178V20.13a4.554,4.554,0,0,1,4.766-4.028M24.566,27.77a6.432,6.432,0,1,1-6.432-6.432,6.433,6.433,0,0,1,6.432,6.432m29.821-6.432a6.432,6.432,0,1,0,6.432,6.432,6.433,6.433,0,0,0-6.432-6.432ZM72.521,27.77a18.133,18.133,0,0,1-30.448,13.3l-5.8,6.314-5.807-6.321A18.126,18.126,0,1,1,5.931,14.374L0,7.92H13.178a41.068,41.068,0,0,1,46.215,0H72.537l-5.931,6.453a18.076,18.076,0,0,1,5.915,13.4m-42.116,0A12.266,12.266,0,1,0,18.139,40.037,12.267,12.267,0,0,0,30.4,27.77ZM49.879,9.456a35.4,35.4,0,0,0-27.225,0c7.744,2.964,13.615,9.888,13.615,17.96,0-8.072,5.87-15,13.611-17.96M66.656,27.769A12.266,12.266,0,1,0,54.39,40.036,12.267,12.267,0,0,0,66.656,27.769" transform="translate(0 -0.802)" fill="#ffffff"/>
</svg>
